<svg width="36" height="36" viewBox="0 0 36 36" fill="none" xmlns="http://www.w3.org/2000/svg">
  <rect width="36" height="36" rx="10" fill="url(#paint0_linear)" />
  <path
    d="M11 12.5C11 10.567 12.567 9 14.5 9H22C24.2091 9 26 10.7909 26 13C26 15.2091 24.2091 17 22 17H16.5C15.6716 17 15 17.6716 15 18.5C15 19.3284 15.6716 20 16.5 20H21.5C23.433 20 25 21.567 25 23.5C25 25.433 23.433 27 21.5 27H14C11.7909 27 10 25.2091 10 23V12.5H11Z"
    fill="#101014"
    fill-opacity="0.92"
  />
  <defs>
    <linearGradient id="paint0_linear" x1="6" y1="6" x2="30" y2="30" gradientUnits="userSpaceOnUse">
      <stop stop-color="#FF6A00" />
      <stop offset="1" stop-color="#FFB84D" />
    </linearGradient>
  </defs>
</svg>
